<?xml version="1.0" standalone="no"?>
<!DOCTYPE svg PUBLIC "-//W3C//DTD SVG 20010904//EN"
 "http://www.w3.org/TR/2001/REC-SVG-20010904/DTD/svg10.dtd">
<svg version="1.0" xmlns="http://www.w3.org/2000/svg"
 width="1000.000000pt" height="1000.000000pt" viewBox="0 0 1000.000000 1000.000000"
 preserveAspectRatio="xMidYMid meet">
<metadata>
Created by potrace 1.11, written by Peter Selinger 2001-2013
</metadata>
<g transform="translate(0.000000,1000.000000) scale(0.100000,-0.100000)"
fill="#000000" stroke="none">
<path d="M3487 9842 c-27 -86 -62 -200 -79 -252 -30 -98 -43 -138 -77 -250
-11 -36 -34 -110 -51 -165 -17 -55 -49 -156 -70 -225 -21 -69 -57 -183 -80
-255 -22 -71 -42 -137 -44 -145 -2 -8 -15 -51 -29 -95 -14 -44 -44 -141 -67
-215 -23 -74 -57 -182 -75 -240 -18 -58 -42 -134 -53 -170 -11 -36 -38 -123
-60 -195 -86 -275 -235 -756 -273 -880 -22 -71 -44 -141 -49 -155 -5 -14 -25
-79 -45 -145 -20 -66 -61 -196 -90 -290 -29 -93 -90 -289 -135 -435 -45 -146
-107 -344 -137 -440 -30 -96 -60 -191 -65 -210 -5 -19 -18 -60 -28 -90 -10
-30 -33 -102 -50 -160 -18 -58 -45 -145 -60 -195 -16 -49 -47 -151 -70 -225
-23 -74 -61 -198 -86 -275 -24 -77 -77 -250 -119 -385 -41 -135 -95 -308 -120
-385 -48 -151 -166 -532 -195 -630 -18 -58 -160 -516 -262 -840 -27 -88 -54
-173 -58 -190 -4 -16 -35 -115 -68 -220 -33 -104 -78 -248 -100 -320 -22 -71
-73 -233 -112 -360 -39 -126 -111 -358 -159 -515 l-89 -285 1226 -3 c674 -1
1227 0 1230 3 5 4 57 200 73 270 5 22 17 74 28 115 26 101 122 481 126 500 2
8 11 44 20 80 9 36 19 73 21 83 2 10 6 27 9 37 3 10 8 27 10 37 2 10 18 74 35
143 18 69 33 132 35 140 2 8 20 78 40 155 20 77 38 147 40 155 21 92 118 473
126 498 l11 32 1489 0 c819 0 1489 -2 1489 -4 0 -2 25 -105 56 -228 31 -122
58 -231 60 -240 6 -28 10 -44 49 -193 20 -77 38 -149 40 -160 3 -11 22 -90 44
-175 22 -85 94 -373 161 -640 66 -267 125 -496 130 -510 4 -14 11 -42 15 -62
l6 -38 1269 0 c1009 0 1270 3 1270 13 0 6 -12 48 -26 92 -14 44 -54 172 -89
285 -80 260 -188 607 -271 870 -36 113 -66 213 -69 223 -4 20 -91 297 -105
337 -11 33 -73 232 -75 245 -3 11 -124 400 -187 600 -23 72 -43 135 -44 140
-1 6 -22 75 -47 155 -25 80 -78 249 -117 375 -40 127 -82 264 -95 305 -13 41
-62 201 -110 355 -48 154 -91 294 -96 310 -4 17 -60 197 -124 400 -64 204
-118 375 -119 380 -2 6 -5 17 -8 25 -6 15 -143 457 -179 578 -10 34 -28 90
-38 125 -28 90 -291 935 -346 1112 -26 83 -53 170 -60 195 -7 25 -27 90 -45
145 -17 55 -40 127 -50 160 -10 33 -30 98 -45 145 -15 47 -45 144 -67 215 -22
72 -48 156 -59 188 -10 31 -46 148 -79 260 -34 111 -65 211 -70 222 -5 11 -13
36 -18 55 -9 31 -208 674 -329 1060 -24 80 -54 174 -65 210 -11 36 -31 100
-45 143 l-25 77 -1451 0 -1452 0 -48 -158z m1499 -1727 c12 -49 38 -152 58
-227 19 -75 37 -147 40 -160 2 -13 21 -88 41 -168 20 -80 45 -181 55 -225 10
-44 32 -136 49 -205 35 -145 86 -357 108 -450 18 -78 14 -60 57 -240 19 -80
53 -219 75 -310 22 -91 52 -214 66 -275 15 -60 28 -117 30 -125 2 -8 20 -80
40 -160 20 -80 38 -152 40 -160 2 -8 22 -82 44 -165 22 -82 69 -265 105 -405
35 -140 91 -360 124 -487 l59 -233 -1028 0 c-566 0 -1029 2 -1029 4 0 3 16 66
35 141 37 141 194 759 200 785 2 8 13 53 25 100 11 47 22 92 24 100 2 8 23 89
46 180 23 91 44 174 46 185 2 11 18 76 35 145 17 68 32 131 34 140 2 8 17 71
34 140 31 130 49 204 126 530 25 107 55 231 65 275 33 137 101 429 106 455 3
14 10 43 16 65 5 22 12 51 15 65 2 14 13 59 23 100 10 41 21 86 24 100 7 39
126 554 131 568 3 8 16 12 32 10 25 -3 28 -9 49 -93z"/>
</g>
</svg>
