<?xml version="1.0" standalone="no"?>
<!DOCTYPE svg PUBLIC "-//W3C//DTD SVG 20010904//EN"
 "http://www.w3.org/TR/2001/REC-SVG-20010904/DTD/svg10.dtd">
<svg version="1.0" xmlns="http://www.w3.org/2000/svg"
 width="200.000000pt" height="200.000000pt" viewBox="0 0 200.000000 200.000000"
 preserveAspectRatio="xMidYMid meet">
<metadata>
Created by potrace 1.11, written by Peter Selinger 2001-2013
</metadata>
<g transform="translate(0.000000,200.000000) scale(0.100000,-0.100000)"
fill="#000000" stroke="none">
<path d="M782 1686 c37 -119 54 -225 49 -320 l-1 -29 -45 42 c-101 93 -236
158 -306 146 -80 -13 -230 -78 -342 -148 l-38 -23 50 -27 c158 -87 308 -223
365 -335 20 -38 19 -41 -18 -48 -75 -13 -346 -133 -346 -153 0 -4 28 -13 62
-20 84 -17 243 -68 295 -95 l43 -21 -80 -45 c-44 -25 -80 -48 -80 -52 0 -5 19
-8 43 -9 23 0 51 -2 62 -4 11 -2 54 -7 95 -11 41 -4 82 -8 90 -9 26 -2 47 -19
63 -51 20 -39 136 -147 181 -168 55 -26 134 -21 187 12 51 33 142 118 157 147
8 15 22 20 59 21 26 1 75 2 108 3 l60 2 -50 26 c-59 31 -66 26 119 79 140 41
139 40 19 69 -40 10 -73 20 -73 24 0 3 85 53 189 111 104 58 188 106 186 108
-2 2 -41 6 -87 9 -45 3 -94 6 -108 8 -14 1 -36 3 -49 4 -21 1 -18 5 25 45 27
23 63 55 79 70 l30 27 -90 -6 c-49 -3 -132 -8 -182 -11 -79 -6 -93 -4 -93 9 0
8 -19 40 -42 71 -38 51 -86 84 -174 120 -1 1 -5 28 -9 61 -12 105 -25 158 -54
221 -49 104 -103 141 -277 187 l-91 25 19 -62z m363 -787 c8 -23 -2 -152 -15
-214 -5 -22 -7 -41 -6 -43 6 -5 94 116 122 169 44 79 56 61 29 -41 -20 -73
-19 -75 11 -56 l25 17 -16 -30 c-18 -36 -13 -38 26 -10 16 11 29 17 30 12 7
-56 4 -73 -18 -111 -13 -24 -35 -48 -48 -54 -13 -6 -28 -23 -34 -39 -12 -34
-90 -115 -149 -154 -49 -32 -119 -37 -167 -12 -51 26 -153 126 -166 162 -7 18
-20 36 -30 38 -9 3 -31 24 -48 47 -31 44 -40 99 -22 144 6 16 11 14 40 -19
l33 -38 -5 37 -5 38 27 -26 c15 -14 30 -26 33 -26 3 0 4 22 3 48 -1 26 1 57 5
67 8 22 58 75 70 75 7 0 14 -127 11 -197 0 -13 3 -23 7 -23 4 1 29 33 57 71
48 68 166 189 185 189 5 0 12 -9 15 -21z"/>
</g>
</svg>
